# xmcd
# 
# Track frame offsets:
#     150
#     19470
#     52505
# 
# Disc length: 953
# 
# Revision: 1
# Processed by: cddbd v1.5.2PL0 Copyright (c) Steve Scherf et al.
# Submitted via: fre:ac v1.0.31
# 
DISCID=1903b703
DTITLE=SOPHIA - ゴキゲン鳥 ～crawler is crazy～
DYEAR=1998
DGENRE=Rock
TTITLE0=ゴキゲン鳥 ～crawler is crazy～
TTITLE1=farewell
TTITLE2=ゴキゲン鳥 ～crawler is crazy～（instrumental）
EXTD=YEAR: 1998
EXTT0=
EXTT1=
EXTT2=
PLAYORDER=
